<svg width="406" height="208" viewBox="0 0 406 208" fill="none" xmlns="http://www.w3.org/2000/svg">
<path d="M0 50C0 22.3858 22.3858 0 50 0H406V157C406 184.614 383.614 207 356 207H0V50Z" fill="#251A1A"/>
<path d="M116.551 62.3636V146H106.75L61.1745 80.3324H60.3577V146H50.2299V62.3636H60.031L105.77 128.195H106.586V62.3636H116.551ZM153.969 147.47C149.994 147.47 146.387 146.721 143.147 145.224C139.907 143.699 137.334 141.508 135.428 138.649C133.523 135.763 132.57 132.278 132.57 128.195C132.57 124.601 133.278 121.688 134.693 119.455C136.109 117.196 138.001 115.426 140.37 114.146C142.738 112.867 145.352 111.914 148.211 111.288C151.097 110.634 153.996 110.117 156.909 109.736C160.721 109.246 163.811 108.878 166.179 108.633C168.575 108.361 170.318 107.912 171.407 107.286C172.523 106.659 173.081 105.57 173.081 104.018V103.692C173.081 99.6624 171.978 96.5315 169.773 94.299C167.595 92.0665 164.287 90.9503 159.849 90.9503C155.248 90.9503 151.641 91.9576 149.027 93.9723C146.414 95.987 144.576 98.1378 143.514 100.425L134.367 97.1577C136 93.3461 138.178 90.3785 140.901 88.255C143.65 86.1042 146.645 84.6068 149.885 83.7628C153.152 82.8916 156.365 82.456 159.523 82.456C161.537 82.456 163.852 82.701 166.465 83.191C169.106 83.6539 171.652 84.6204 174.102 86.0905C176.579 87.5607 178.635 89.7796 180.269 92.7472C181.902 95.7147 182.719 99.6896 182.719 104.672V146H173.081V137.506H172.591C171.938 138.867 170.849 140.324 169.324 141.875C167.799 143.427 165.771 144.748 163.239 145.837C160.707 146.926 157.617 147.47 153.969 147.47ZM155.439 138.812C159.251 138.812 162.463 138.064 165.077 136.566C167.718 135.069 169.705 133.136 171.039 130.767C172.4 128.399 173.081 125.908 173.081 123.294V114.473C172.673 114.963 171.774 115.412 170.386 115.821C169.024 116.202 167.445 116.542 165.648 116.842C163.879 117.114 162.15 117.359 160.462 117.577C158.801 117.767 157.454 117.931 156.419 118.067C153.914 118.393 151.573 118.924 149.395 119.659C147.244 120.367 145.502 121.443 144.168 122.886C142.861 124.301 142.207 126.234 142.207 128.685C142.207 132.033 143.446 134.565 145.924 136.281C148.428 137.969 151.6 138.812 155.439 138.812ZM200.31 146V83.2727H209.621V92.7472H210.274C211.418 89.6435 213.487 87.1251 216.482 85.1921C219.476 83.2591 222.852 82.2926 226.61 82.2926C227.317 82.2926 228.202 82.3062 229.264 82.3334C230.326 82.3607 231.129 82.4015 231.673 82.456V92.2571C231.347 92.1754 230.598 92.0529 229.427 91.8896C228.284 91.699 227.072 91.6037 225.793 91.6037C222.744 91.6037 220.021 92.2435 217.625 93.5231C215.257 94.7754 213.378 96.5179 211.989 98.7504C210.628 100.956 209.948 103.474 209.948 106.305V146H200.31ZM261.557 147.47C257.582 147.47 253.974 146.721 250.735 145.224C247.495 143.699 244.922 141.508 243.016 138.649C241.11 135.763 240.158 132.278 240.158 128.195C240.158 124.601 240.865 121.688 242.281 119.455C243.697 117.196 245.589 115.426 247.958 114.146C250.326 112.867 252.94 111.914 255.799 111.288C258.684 110.634 261.584 110.117 264.497 109.736C268.309 109.246 271.399 108.878 273.767 108.633C276.163 108.361 277.906 107.912 278.995 107.286C280.111 106.659 280.669 105.57 280.669 104.018V103.692C280.669 99.6624 279.566 96.5315 277.361 94.299C275.183 92.0665 271.875 90.9503 267.437 90.9503C262.836 90.9503 259.229 91.9576 256.615 93.9723C254.002 95.987 252.164 98.1378 251.102 100.425L241.954 97.1577C243.588 93.3461 245.766 90.3785 248.489 88.255C251.238 86.1042 254.233 84.6068 257.473 83.7628C260.74 82.8916 263.953 82.456 267.111 82.456C269.125 82.456 271.439 82.701 274.053 83.191C276.694 83.6539 279.24 84.6204 281.69 86.0905C284.167 87.5607 286.223 89.7796 287.856 92.7472C289.49 95.7147 290.307 99.6896 290.307 104.672V146H280.669V137.506H280.179C279.525 138.867 278.436 140.324 276.912 141.875C275.387 143.427 273.359 144.748 270.827 145.837C268.295 146.926 265.205 147.47 261.557 147.47ZM263.027 138.812C266.838 138.812 270.051 138.064 272.665 136.566C275.306 135.069 277.293 133.136 278.627 130.767C279.988 128.399 280.669 125.908 280.669 123.294V114.473C280.261 114.963 279.362 115.412 277.974 115.821C276.612 116.202 275.033 116.542 273.236 116.842C271.467 117.114 269.738 117.359 268.05 117.577C266.389 117.767 265.042 117.931 264.007 118.067C261.502 118.393 259.161 118.924 256.983 119.659C254.832 120.367 253.09 121.443 251.756 122.886C250.449 124.301 249.795 126.234 249.795 128.685C249.795 132.033 251.034 134.565 253.512 136.281C256.016 137.969 259.188 138.812 263.027 138.812ZM347.429 120.354V83.2727H357.067V146H347.429V135.382H346.776C345.305 138.567 343.018 141.276 339.915 143.509C336.811 145.714 332.891 146.817 328.153 146.817C324.233 146.817 320.748 145.959 317.699 144.244C314.65 142.502 312.254 139.888 310.511 136.403C308.769 132.891 307.898 128.467 307.898 123.131V83.2727H317.535V122.477C317.535 127.051 318.815 130.699 321.374 133.422C323.961 136.144 327.255 137.506 331.257 137.506C333.653 137.506 336.09 136.893 338.567 135.668C341.072 134.443 343.168 132.564 344.856 130.032C346.571 127.5 347.429 124.274 347.429 120.354Z" fill="#EBDDDD"/>
</svg>
